<?xml version="1.0" encoding="utf-8"?>
<svg id="master-artboard" viewBox="0 0 1400 980" xmlns="http://www.w3.org/2000/svg" width="1400px" height="980px" version="1.1" style="shape-rendering:geometricPrecision; text-rendering:geometricPrecision; image-rendering:optimizeQuality; fill-rule:evenodd; clip-rule:evenodd"><rect id="ee-background" x="0" y="0" width="1400" height="980" style="fill: white; fill-opacity: 0; pointer-events: none;"/>
 
 <metadata id="CorelCorpID_0Corel-Layer"/>
<g transform="matrix(61.249996185302734, 0, 0, 61.249996185302734, 205.82419696201316, -20.878924376588202)"><path d="M2.52 3.515A2.5 2.5 0 0 1 4.82 2h6.362c1 0 1.904.596 2.298 1.515l.792 1.848c.075.175.21.319.38.404.5.25.855.715.965 1.262l.335 1.679q.05.242.049.49v.413c0 .814-.39 1.543-1 1.997V13.5a.5.5 0 0 1-.5.5h-2a.5.5 0 0 1-.5-.5v-1.338c-1.292.048-2.745.088-4 .088s-2.708-.04-4-.088V13.5a.5.5 0 0 1-.5.5h-2a.5.5 0 0 1-.5-.5v-1.892c-.61-.454-1-1.183-1-1.997v-.413a2.5 2.5 0 0 1 .049-.49l.335-1.68c.11-.546.465-1.012.964-1.261a.8.8 0 0 0 .381-.404l.792-1.848ZM3 10a1 1 0 1 0 0-2 1 1 0 0 0 0 2m10 0a1 1 0 1 0 0-2 1 1 0 0 0 0 2M6 8a1 1 0 0 0 0 2h4a1 1 0 1 0 0-2zM2.906 5.189a.51.51 0 0 0 .497.731c.91-.073 3.35-.17 4.597-.17s3.688.097 4.597.17a.51.51 0 0 0 .497-.731l-.956-1.913A.5.5 0 0 0 11.691 3H4.309a.5.5 0 0 0-.447.276L2.906 5.19Z" style="stroke: rgb(0, 0, 0); stroke-opacity: 0; fill: rgb(255, 255, 255); stroke-width: 4;"/></g></svg>